<svg width="19" height="21" fill="none" xmlns="http://www.w3.org/2000/svg"><path d="M17.75 15.172l-.538-.328a9.312 9.312 0 001.698-5.389C18.91 4.242 14.668 0 9.455 0c-.948 0-1.877.139-2.76.411A9.398 9.398 0 000 9.455c0 1.517.35 2.966 1.037 4.305a9.413 9.413 0 0010.777 4.842l-.002.018v1.944a.436.436 0 00.706.342l1.517-1.199 1.517 1.199a.436.436 0 00.706-.342V18.62a.436.436 0 00-.198-.365l-.827-.538.065-1.175 2.103.613a.433.433 0 00.558-.418v-1.192a.434.434 0 00-.209-.373zm.288-5.716a8.452 8.452 0 01-1.572 4.934l-.956-.582a.281.281 0 01-.084-.154c.02-.3.156-2.948-1.28-3.32a.43.43 0 00-.219 0c-.561.146-.88.639-1.063 1.2l-1.046-.297-.31-.092c-1.062-.315-2.067-.611-2.33-1.63-.093-.365-.041-.77.136-1.057a.878.878 0 01.58-.412 1.13 1.13 0 01.242-.025c2.18 0 3.204-.464 3.902-3.34.15-.622.471-1.22.937-1.79a8.564 8.564 0 013.063 6.565zm-11.402-8.1c.553.925.81 1.697.702 2.142a.517.517 0 01-.261.348l-.136.077c-1.532.88-4.096 2.353-2.625 4.99.513.917.465 1.956-.13 2.851-.579.872-1.533 1.391-2.48 1.372a8.455 8.455 0 01-.834-3.68 8.525 8.525 0 015.764-8.101zm-4.467 12.63c1.073-.134 2.096-.766 2.744-1.74.77-1.159.832-2.565.164-3.759-.974-1.746.4-2.718 2.298-3.808l.138-.079c.346-.201.579-.512.672-.898.157-.653-.075-1.527-.688-2.603a8.564 8.564 0 016.785 1.264c-.538.664-.912 1.37-1.092 2.111-.624 2.572-1.344 2.675-3.055 2.675-.15 0-.295.015-.428.045A1.74 1.74 0 008.57 8c-.301.49-.39 1.136-.237 1.731.385 1.499 1.794 1.915 2.928 2.25l1.421.407a6.944 6.944 0 00-.037 1.227.283.283 0 01-.084.193l-2.24 1.365a.435.435 0 00-.21.372v1.192a.436.436 0 00.558.419l2.102-.614.045.82-.218.08c-1 .395-2.059.596-3.144.596a8.54 8.54 0 01-7.286-4.053zm14.919 2.17l-2.071-.604a.437.437 0 00-.557.395l-.11 1.974a.435.435 0 00.197.39l.84.546v.808l-1.08-.854a.435.435 0 00-.541 0l-1.08.854v-.808l.839-.547a.434.434 0 00.197-.39l-.11-1.974a.437.437 0 00-.556-.395l-2.071.605v-.367l2.062-1.256a.454.454 0 00.047-.034c.258-.208.416-.531.423-.903-.055-.83.078-2.082.52-2.369.441.287.573 1.542.518 2.407a1.155 1.155 0 00.47.899l2.063 1.256v.367z" fill="#DA8907"/></svg>