<svg width="19" height="17" fill="none" xmlns="http://www.w3.org/2000/svg"><path d="M6.188 7.409a1.061 1.061 0 11-2.122 0 1.061 1.061 0 012.122 0zm4.342 0a1.061 1.061 0 11-2.123 0 1.061 1.061 0 012.122 0zm4.34 0a1.061 1.061 0 11-2.122 0 1.061 1.061 0 012.123 0z" fill="#DA8907"/><path d="M.651 16.882A.65.65 0 010 16.23V3.568A3.573 3.573 0 013.568 0h11.864A3.573 3.573 0 0119 3.568v6.962a3.572 3.572 0 01-3.568 3.568H3.83L1.1 16.701a.649.649 0 01-.45.18zM3.57 1.302a2.268 2.268 0 00-2.266 2.266V14.71l1.816-1.733a.65.65 0 01.45-.18h11.862a2.268 2.268 0 002.266-2.266V3.57a2.269 2.269 0 00-2.265-2.266H3.569z" fill="#DA8907"/></svg>