<svg width="12" height="12" fill="none" xmlns="http://www.w3.org/2000/svg"><path d="M10.313 0H.937A.939.939 0 000 .938v10.124c0 .518.42.938.938.938h9.374c.518 0 .938-.42.938-.938V.938A.939.939 0 0010.312 0zm.562 11.063c0 .31-.252.562-.563.562H.938a.563.563 0 01-.563-.563V.938c0-.31.252-.563.563-.563h9.374c.31 0 .563.252.563.563v10.124z" fill="#000"/><path d="M10.01 1.14a.187.187 0 00-.072-.015H8.063a.187.187 0 100 .375h1.422l-2.68 2.68a.187.187 0 10.265.265l2.68-2.68v1.422a.187.187 0 10.375 0V1.312a.19.19 0 00-.116-.173zM4.18 7.555l-2.68 2.68V8.813a.187.187 0 10-.375 0v1.874a.19.19 0 00.116.174.19.19 0 00.071.014h1.875a.187.187 0 100-.375H1.766l2.68-2.68a.187.187 0 10-.265-.265z" fill="#000"/></svg>