<svg width="54" height="53" fill="none" xmlns="http://www.w3.org/2000/svg"><path d="M53.165 50.895h-7.628a5.221 5.221 0 002.405-4.396 5.23 5.23 0 10-10.462 0c0 1.847.953 3.467 2.396 4.396h-22.9a5.221 5.221 0 002.405-4.396 5.23 5.23 0 10-10.462 0c0 1.847.953 3.467 2.397 4.396H1.123a.837.837 0 00-.835.835c0 .455.371.835.835.835h52.042c.464 0 .835-.38.835-.835a.837.837 0 00-.835-.835zm-10.463-6.506a2.11 2.11 0 11-2.109 2.11 2.105 2.105 0 012.11-2.11zm-28.56 0a2.11 2.11 0 11-.002 4.22 2.11 2.11 0 01.002-4.22zM2.464 15.145l7.113.084a2.202 2.202 0 002.236-2.185 2.208 2.208 0 00-2.186-2.236h-.033c.008-.042.008-.067.008-.11a2.962 2.962 0 00-2.92-2.986 2.947 2.947 0 00-2.978 2.784 2.454 2.454 0 00-1.19-.32C1.148 10.15.017 11.256 0 12.63a2.488 2.488 0 002.464 2.514zM41.75 2.565c.464 0 .835-.38.835-.835V.835A.832.832 0 0041.75 0a.837.837 0 00-.835.835v.886a.833.833 0 00.835.844zm-3.3.27c.152.27.44.422.726.422A.83.83 0 0039.902 2l-.448-.777A.83.83 0 0038.307.92a.83.83 0 00-.304 1.148l.447.768zm-2.345 1.746l.767.44a.865.865 0 00.422.109.836.836 0 00.726-.422.847.847 0 00-.304-1.147l-.768-.448a.84.84 0 00-1.147.304.85.85 0 00.303 1.164zm-.397 3.131h.886c.464 0 .835-.38.835-.835a.832.832 0 00-.835-.835h-.886a.837.837 0 00-.835.835c0 .455.37.835.835.835zM43.9 3.139a.87.87 0 00.423.11.836.836 0 00.725-.423l.447-.768a.847.847 0 00-.303-1.147.84.84 0 00-1.148.304l-.447.768a.84.84 0 00.304 1.156zm-1.467 5.045a2.502 2.502 0 00-1.249-.32 2.609 2.609 0 00-2.607 2.607 2.614 2.614 0 002.607 2.607h7.459a2.319 2.319 0 002.32-2.32 2.324 2.324 0 00-2.32-2.32h-.034c.009-.042.009-.076.009-.118a3.099 3.099 0 00-3.097-3.097 3.098 3.098 0 00-3.088 2.961zm-4.008-1.316c0 .11.017.21.026.32a4.26 4.26 0 012.725-1.004h.068a4.752 4.752 0 012.202-2.16 3.231 3.231 0 00-1.696-.481 3.331 3.331 0 00-3.325 3.325zM3.072 35.808c0-.666.11-1.316.329-1.923l1.46-4.202a2.545 2.545 0 00-1.325-.372 2.582 2.582 0 00-2.582 2.582v7.333c0 1.265.92 2.32 2.126 2.53v-5.948h-.008z" fill="#596B86"/><path d="M7.747 26.469L4.979 34.45a4.173 4.173 0 00-.227 1.359v6.176h4.176a6.881 6.881 0 015.223-2.396 6.91 6.91 0 015.223 2.396h18.115a6.881 6.881 0 015.223-2.396c2.084 0 3.957.936 5.222 2.396h2.903v-2.514a4.678 4.678 0 00-4.345-4.666l-6.193-.439-4.928-8.606a4.16 4.16 0 00-3.594-2.084H11.662a4.155 4.155 0 00-3.915 2.793zm14.824 1.156c0-.532.43-.97.97-.97h8.219c.421 0 .81.227 1.02.59l3.603 6.294a.967.967 0 01-.843 1.451H23.542a.97.97 0 01-.97-.97v-6.395zm-2.607 0v6.404a.97.97 0 01-.97.97H9.3a.964.964 0 01-.911-1.283l2.168-6.269c.16-.472.608-.784 1.105-.784h7.333c.54-.009.97.422.97.962zM49.613 46.5c0 .54-.068 1.062-.186 1.569h2.042a1.03 1.03 0 001.03-1.03v-2.345c0-.566-.456-1.03-1.03-1.03h-2.472c.388.87.616 1.822.616 2.835zm-45.52-2.836a1.03 1.03 0 00-1.03 1.03v2.345c0 .565.456 1.03 1.03 1.03h3.324a6.787 6.787 0 01.43-4.404H4.094zm16.351 0a6.93 6.93 0 01.616 2.835c0 .54-.067 1.063-.185 1.57h15.111a6.787 6.787 0 01.43-4.404H20.444z" fill="#596B86"/></svg>