<svg width="18" height="12" fill="none" xmlns="http://www.w3.org/2000/svg"><path d="M15.383 2.6h-7.8a.215.215 0 00-.216.217V6.5H1.733V.217A.215.215 0 001.517 0h-1.3A.215.215 0 000 .217v11.266c0 .121.095.216.217.216h1.3a.215.215 0 00.216-.216V9.1h14.3v2.383c0 .121.095.217.216.217h1.3a.214.214 0 00.217-.217v-6.5A2.387 2.387 0 0015.383 2.6zM7.367 8.666h-5.85a.215.215 0 00-.217.217v2.383H.434V.433H1.3v6.283c0 .122.095.217.217.217h5.85v1.733zm9.966 2.6h-.867V8.883a.215.215 0 00-.216-.216H7.8V3.032h7.583c1.075 0 1.95.876 1.95 1.95v6.283z" fill="#000"/><path d="M2.6 3.683c0 1.075.875 1.95 1.95 1.95 1.074 0 1.95-.875 1.95-1.95 0-1.074-.876-1.95-1.95-1.95-1.075 0-1.95.876-1.95 1.95zm3.467 0a1.518 1.518 0 01-3.034 0 1.518 1.518 0 013.034 0z" fill="#000"/></svg>