<svg width="55" height="51" fill="none" xmlns="http://www.w3.org/2000/svg"><path fill-rule="evenodd" clip-rule="evenodd" d="M14.153 11.062c2.666 0 4.84-2.484 4.84-5.531 0-3.047-2.174-5.531-4.84-5.531-2.665 0-4.84 2.485-4.84 5.531s2.175 5.531 4.84 5.531zm-5.431 3.361c.993-2.084 3.466-2.958 5.525-1.952a4.143 4.143 0 011.815 1.73c.894 1.354 2.366 2.994 4.18 4.337 1.451 1.074 3.096 1.934 4.785 2.248 1.123.208 1.867 1.299 1.66 2.436a2.07 2.07 0 01-2.406 1.681c-2.368-.44-4.584-1.577-6.486-2.986a22.118 22.118 0 01-2.135-1.804c-.111.61-.223 1.306-.331 2.044-.413 2.812-.672 5.91-.672 7.329 0 1.938 1.685 4.762 3.062 8.297 1.243 3.192 2.125 6.868 2.185 10.625.02 1.348-1.042 2.457-2.373 2.478-1.33.021-2.427-1.054-2.448-2.402-.05-3.099-.803-6.195-1.863-8.922a29.098 29.098 0 00-1.893-3.966c-.358 2.307-.99 4.784-1.94 7.07-1.267 3.047-3.11 5.801-5.64 7.507a2.396 2.396 0 01-3.346-.69 2.464 2.464 0 01.68-3.387c1.656-1.117 2.933-3.087 3.862-5.326 1.873-4.505 1.417-6.01 1.417-11.285 0-1.704.298-5.323.77-8.543.383-2.616.92-5.113 1.591-6.52v.001zm20.218 10.19h23.508v-4.148a.692.692 0 011.383-.001v4.15c.38 0 .692.31.692.691 0 .38-.311.691-.692.691v6.915c.38 0 .692.31.692.691 0 .38-.311.692-.692.692v6.914c.38 0 .692.311.692.691 0 .38-.311.692-.692.692v4.15c0 .379-.311.69-.691.69a.694.694 0 01-.692-.69v-4.15H28.94v4.149c0 .38-.312.691-.692.691a.694.694 0 01-.691-.691v-4.15a.693.693 0 01-.691-.69v-.001c0-.38.31-.691.69-.691v-6.915a.694.694 0 01-.69-.692c0-.38.31-.691.69-.691v-6.914a.693.693 0 01-.69-.692c0-.38.31-.691.69-.691v-4.149c0-.38.312-.691.692-.691.38 0 .692.31.692.691v4.15zm23.507 1.383H28.94v6.914h23.508l-.001-6.914zm0 8.297H28.94v6.914h23.508l-.001-6.914zM28.249 50.886c.761 0 1.382-.62 1.382-1.382 0-.761-.62-1.382-1.382-1.382-.762 0-1.383.62-1.383 1.382 0 .762.62 1.382 1.383 1.382zm24.89 0c.762 0 1.383-.62 1.383-1.382a1.384 1.384 0 00-2.765 0c0 .762.62 1.382 1.382 1.382z" fill="#596B86"/><path fill-rule="evenodd" clip-rule="evenodd" d="M38.512 17.032a6.913 6.913 0 016.33 6.89H31.014a6.915 6.915 0 016.33-6.89.691.691 0 111.168 0zm10.478-6.247c0 1.908 1.383 2.329 1.383 4.148v8.297c0 .38-.312.692-.692.692h-3.457a.694.694 0 01-.692-.692v-3.11h3.458v-3.458h-3.458v-1.729c0-1.82 1.383-2.24 1.383-4.148V8.71h2.075v2.074zm-2.073-5.38h2.074v2.766h-2.074V5.405z" fill="#596B86"/></svg>