<svg id="Layer_1" data-name="Layer 1" xmlns="http://www.w3.org/2000/svg" viewBox="0 0 122.88 118.34"><path d="M95.53 63.65A27.35 27.35 0 1168.19 91a27.35 27.35 0 0127.34-27.35zM71.59 4.05c0-2.23 2.21-4 4.94-4s4.94 1.82 4.94 4.05v18.8c0 2.24-2.21 4.05-4.94 4.05s-4.94-1.81-4.94-4.05V4.05zm-44.26 0c0-2.23 2.21-4 4.94-4s4.95 1.82 4.95 4.05v18.8c0 2.24-2.22 4.1-4.95 4.1s-4.94-1.81-4.94-4.05V4.05zM48 77.66h12A38 38 0 0057.62 91c0 .87 0 1.74.09 2.6H48a1.88 1.88 0 01-1.87-1.87v-12.2A1.88 1.88 0 0148 77.66zm29.6-25.95h14.67a1.89 1.89 0 011.81 1.4 37.76 37.76 0 00-18.35 5.55v-5.09a1.87 1.87 0 011.87-1.86zm-29.6 0h14.68a1.87 1.87 0 011.87 1.86v12.21a1.89 1.89 0 01-1.87 1.87H48a1.88 1.88 0 01-1.87-1.87V53.57A1.88 1.88 0 0148 51.71zm-29.58 0H33.1a1.87 1.87 0 011.9 1.86v12.21a1.89 1.89 0 01-1.87 1.87h-14.7a1.87 1.87 0 01-1.87-1.87V53.57a1.87 1.87 0 011.87-1.86zm0 25.95H33.1a1.87 1.87 0 011.9 1.87v12.2a1.89 1.89 0 01-1.9 1.87H18.43a1.87 1.87 0 01-1.87-1.87v-12.2a1.87 1.87 0 011.87-1.87zm45.48 34.26H10.24A10.28 10.28 0 010 101.68V20.54A10.29 10.29 0 0110.24 10.3h9.44v12.6a11.24 11.24 0 004.26 8.75 13.25 13.25 0 0016.67 0 11.24 11.24 0 004.26-8.75V10.3h19.07v12.6a11.23 11.23 0 004.25 8.75 13.26 13.26 0 0016.68 0 11.26 11.26 0 004.25-8.75V10.3H99a10.28 10.28 0 0110.24 10.24v35.09a38.34 38.34 0 00-4.37-1.4V39.94H4.37V99.5a8.08 8.08 0 008.05 8h49a40.11 40.11 0 002.5 4.37zm27.84-34.69h3.34a1.12 1.12 0 011.12 1.12v12.88H108a1.12 1.12 0 011.12 1.11v3.35A1.12 1.12 0 01108 96.8H90.63V78.35a1.12 1.12 0 011.11-1.12zm3.79-7.37A21.14 21.14 0 1174.4 91a21.13 21.13 0 0121.13-21.14z" fill-rule="evenodd"/></svg>