<svg width="18" height="12" fill="none" xmlns="http://www.w3.org/2000/svg"><path d="M16.173 4.039H2.198V1.348a.932.932 0 011.807-.316l.068.188-.391.14a.574.574 0 00-.348.74l.22.61a.209.209 0 00.266.125l1.87-.674a.209.209 0 00.125-.267l-.22-.609a.574.574 0 00-.74-.347l-.39.14-.068-.187a1.35 1.35 0 00-2.616.457v2.691h-.237a1.228 1.228 0 00-.913 2.044l-.002.011c0 .062.028.116.07.154v.831a3.15 3.15 0 002.373 3.06l-.31.727a.71.71 0 00.377.94.715.715 0 00.94-.377l.476-1.117c.01-.023.015-.047.023-.071h8.562c.007.024.012.048.023.072l.475 1.116a.715.715 0 001.325-.013.71.71 0 00-.008-.55l-.31-.726a3.15 3.15 0 002.372-3.061v-.925l.024-.022v-.001a1.227 1.227 0 00-.868-2.092zM4.997 1.329a.158.158 0 01.123.006c.04.018.069.05.084.092l.149.413-1.478.533-.15-.414a.16.16 0 01.097-.206l.588-.212.587-.212zm9.971 3.127V7.43h-2.244V4.456h2.244zM.971 4.692a.805.805 0 01.573-.236h10.764v1.43H1.027A.806.806 0 01.97 4.692zm2.724 6.575a.3.3 0 01-.276.183.298.298 0 01-.117-.027.295.295 0 01-.157-.393l.346-.811c.014.001.028 0 .041.002.111.012.222.02.332.02h.268l-.437 1.026zm10.88-.006a.294.294 0 01-.16.162.298.298 0 01-.117.027.3.3 0 01-.277-.183l-.436-1.026h.267c.11 0 .222-.008.333-.02.013-.001.027 0 .04-.002l.347.812a.296.296 0 01.004.23zm2.17-5.423a.874.874 0 01-.104.088.208.208 0 00-.04.299v.854a2.735 2.735 0 01-2.748 2.746H3.864c-.154 0-.31-.014-.466-.041a2.735 2.735 0 01-2.282-2.705v-.776h11.192v1.336c0 .116.093.209.208.209h2.66a.208.208 0 00.209-.209V4.455h.788a.81.81 0 01.572 1.383z" fill="#000"/></svg>